<?xml version="1.0" encoding="UTF-8" standalone="no"?>
<!-- Created with Inkscape (http://www.inkscape.org/) -->

<svg
   version="1.1"
   id="svg2"
   width="1024"
   height="768"
   viewBox="0 0 1024 768.00001"
   sodipodi:docname="to.svg"
   inkscape:version="1.3.2 (091e20ef0f, 2023-11-25)"
   xml:space="preserve"
   xmlns:inkscape="http://www.inkscape.org/namespaces/inkscape"
   xmlns:sodipodi="http://sodipodi.sourceforge.net/DTD/sodipodi-0.dtd"
   xmlns="http://www.w3.org/2000/svg"
   xmlns:svg="http://www.w3.org/2000/svg"><defs
     id="defs6" /><sodipodi:namedview
     id="namedview4"
     pagecolor="#5d5d5d"
     bordercolor="#666666"
     borderopacity="1.0"
     inkscape:pageshadow="2"
     inkscape:pageopacity="0"
     inkscape:pagecheckerboard="0"
     showgrid="false"
     inkscape:zoom="0.6046411"
     inkscape:cx="765.74352"
     inkscape:cy="324.15924"
     inkscape:window-width="1920"
     inkscape:window-height="1016"
     inkscape:window-x="0"
     inkscape:window-y="0"
     inkscape:window-maximized="1"
     inkscape:current-layer="svg2"
     showguides="true"
     inkscape:guide-bbox="true"
     inkscape:showpageshadow="2"
     inkscape:deskcolor="#d1d1d1"><sodipodi:guide
       position="512.0035,605.33416"
       orientation="1,0"
       id="guide960"
       inkscape:locked="false" /><sodipodi:guide
       position="356.0494,383.99949"
       orientation="0,-1"
       id="guide962"
       inkscape:locked="false" /></sodipodi:namedview><path
     style="fill:none;stroke:#ffffff;stroke-width:3;stroke-opacity:1;stroke-dasharray:none"
     d="M 78.061389,164.26904 H 855.97979 L 622.08671,144.98596 622.94799,35.384214 602.13773,143.57043 559.50043,138.29909 C 508.72434,46.682376 419.62372,50.498325 370.80057,141.37736 l -32.58905,1.80231 -21.90679,-105.789792 -2.27282,106.088842 z"
     id="path1"
     sodipodi:nodetypes="ccccccccccc" /><path
     style="fill:none;stroke:#ffffff;stroke-width:3;stroke-dasharray:none;stroke-opacity:1"
     d="m 111.15996,191.07613 v -25.777"
     id="path2" /><path
     style="fill:none;stroke:#ffffff;stroke-width:3;stroke-dasharray:none;stroke-opacity:1"
     d="M 189.70581,192.4195 V 164.91767"
     id="path3" /><path
     style="fill:none;stroke:#ffffff;stroke-width:3;stroke-dasharray:none;stroke-opacity:1"
     d="M 268.78859,199.02234 V 163.77539"
     id="path4" /><path
     style="fill:none;stroke:#ffffff;stroke-width:3;stroke-dasharray:none;stroke-opacity:1"
     d="M 346.38496,198.48748 V 163.56186"
     id="path5" /><path
     style="fill:none;stroke:#ffffff;stroke-width:3;stroke-dasharray:none;stroke-opacity:1"
     d="M 428.9547,201.52044 V 163.65101"
     id="path6" /><path
     style="fill:none;stroke:#ffffff;stroke-width:3;stroke-dasharray:none;stroke-opacity:1"
     d="M 509.54375,198.49473 V 163.5141"
     id="path7" /><path
     style="fill:none;stroke:#ffffff;stroke-width:3;stroke-dasharray:none;stroke-opacity:1"
     d="M 589.62824,200.06899 V 164.7799"
     id="path8" /><path
     style="fill:none;stroke:#ffffff;stroke-width:3;stroke-dasharray:none;stroke-opacity:1"
     d="m 669.41067,198.59062 v -35.7254"
     id="path9" /><path
     style="fill:none;stroke:#ffffff;stroke-width:3;stroke-dasharray:none;stroke-opacity:1"
     d="M 748.94697,197.89219 V 164.83584"
     id="path10" /><path
     style="fill:none;stroke:#ffffff;stroke-width:3;stroke-dasharray:none;stroke-opacity:1"
     d="M 828.31295,198.4616 V 163.89965"
     id="path11" /><path
     style="fill:none;stroke:#ffffff;stroke-width:3;stroke-dasharray:none;stroke-opacity:1"
     d="M 507.5041,246.23083 V 539.4993"
     id="path12" /><path
     id="path13"
     style="fill:none;stroke:#ffffff;stroke-width:3"
     d="m 528.65742,573.08405 a 24.680069,23.022427 0 0 1 -24.68006,23.02242 24.680069,23.022427 0 0 1 -24.68007,-23.02242 24.680069,23.022427 0 0 1 24.68007,-23.02243 24.680069,23.022427 0 0 1 24.68006,23.02243 z" /><path
     id="path15"
     style="fill:none;stroke:#ffffff;stroke-width:3"
     d="m 610.85982,502.7035 a 24.680069,23.022427 0 0 1 -24.68006,23.02242 24.680069,23.022427 0 0 1 -24.68007,-23.02242 24.680069,23.022427 0 0 1 24.68007,-23.02243 24.680069,23.022427 0 0 1 24.68006,23.02243 z" /><path
     id="path16"
     style="fill:none;stroke:#ffffff;stroke-width:3"
     d="m 690.9579,437.9405 a 24.680069,23.022427 0 0 1 -24.68006,23.02242 24.680069,23.022427 0 0 1 -24.68007,-23.02242 24.680069,23.022427 0 0 1 24.68007,-23.02243 24.680069,23.022427 0 0 1 24.68006,23.02243 z" /><path
     id="path17"
     style="fill:none;stroke:#ffffff;stroke-width:3"
     d="m 771.32291,370.50899 a 24.680069,23.022427 0 0 1 -24.68006,23.02242 24.680069,23.022427 0 0 1 -24.68007,-23.02242 24.680069,23.022427 0 0 1 24.68007,-23.02243 24.680069,23.022427 0 0 1 24.68006,23.02243 z" /><path
     id="path18"
     style="fill:none;stroke:#ffffff;stroke-width:3"
     d="m 850.70829,303.06116 a 24.680069,23.022427 0 0 1 -24.68006,23.02242 24.680069,23.022427 0 0 1 -24.68007,-23.02242 24.680069,23.022427 0 0 1 24.68007,-23.02243 24.680069,23.022427 0 0 1 24.68006,23.02243 z" /><path
     id="path14"
     style="fill:#ffffff;fill-opacity:1;stroke:none;stroke-width:2.81385"
     d="m 538.6048,128.71681 a 7.9999999,7.999996 0 0 1 -8,8 7.9999999,7.999996 0 0 1 -8,-8 7.9999999,7.999996 0 0 1 8,-8 7.9999999,7.999996 0 0 1 8,8 z" /></svg>
