<?xml version="1.0" encoding="UTF-8" standalone="no"?>
<!-- Created with Inkscape (http://www.inkscape.org/) -->

<svg
   version="1.1"
   id="svg2"
   width="1024"
   height="768"
   viewBox="0 0 1024 768.00001"
   sodipodi:docname="wpn.svg"
   inkscape:version="1.3.2 (091e20ef0f, 2023-11-25)"
   xml:space="preserve"
   xmlns:inkscape="http://www.inkscape.org/namespaces/inkscape"
   xmlns:sodipodi="http://sodipodi.sourceforge.net/DTD/sodipodi-0.dtd"
   xmlns="http://www.w3.org/2000/svg"
   xmlns:svg="http://www.w3.org/2000/svg"><defs
   id="defs6" /><sodipodi:namedview
   id="namedview4"
   pagecolor="#5d5d5d"
   bordercolor="#666666"
   borderopacity="1.0"
   inkscape:pageshadow="2"
   inkscape:pageopacity="0"
   inkscape:pagecheckerboard="0"
   showgrid="false"
   inkscape:zoom="2.1255065"
   inkscape:cx="219.71233"
   inkscape:cy="296.39993"
   inkscape:window-width="1920"
   inkscape:window-height="1016"
   inkscape:window-x="0"
   inkscape:window-y="0"
   inkscape:window-maximized="1"
   inkscape:current-layer="g17"
   showguides="true"
   inkscape:guide-bbox="true"
   inkscape:showpageshadow="2"
   inkscape:deskcolor="#d1d1d1" /><path
   style="fill:none;stroke:#ffffff;stroke-width:3;stroke-opacity:1;stroke-dasharray:none"
   d="M 78.061389,164.26904 H 855.97979 L 622.08671,144.98596 622.94799,35.384214 602.13773,143.57043 559.50043,138.29909 C 508.72434,46.682376 419.62372,50.498325 370.80057,141.37736 l -32.58905,1.80231 -21.90679,-105.789792 -2.27282,106.088842 z"
   id="path1"
   sodipodi:nodetypes="ccccccccccc" /><path
   style="fill:none;stroke:#ffffff;stroke-width:3;stroke-dasharray:none;stroke-opacity:1"
   d="M 110,200 V 164"
   id="path2"
   sodipodi:nodetypes="cc" /><path
   style="fill:none;stroke:#ffffff;stroke-width:3;stroke-dasharray:none;stroke-opacity:1"
   d="M 189.70581,200 V 164"
   id="path3"
   sodipodi:nodetypes="cc" /><path
   style="fill:none;stroke:#ffffff;stroke-width:3;stroke-dasharray:none;stroke-opacity:1"
   d="M 268.78859,200 V 164"
   id="path4"
   sodipodi:nodetypes="cc" /><path
   style="fill:none;stroke:#ffffff;stroke-width:3;stroke-dasharray:none;stroke-opacity:1"
   d="M 346.38496,200 V 164"
   id="path5"
   sodipodi:nodetypes="cc" /><path
   style="fill:none;stroke:#ffffff;stroke-width:3;stroke-dasharray:none;stroke-opacity:1"
   d="M 428.9547,201.52044 V 163.65101"
   id="path6" /><path
   style="fill:none;stroke:#ffffff;stroke-width:3;stroke-dasharray:none;stroke-opacity:1"
   d="M 508,200 V 164"
   id="path7"
   sodipodi:nodetypes="cc" /><path
   style="fill:none;stroke:#ffffff;stroke-width:3;stroke-dasharray:none;stroke-opacity:1"
   d="M 590,200 V 164"
   id="path8"
   sodipodi:nodetypes="cc" /><path
   style="fill:none;stroke:#ffffff;stroke-width:3;stroke-dasharray:none;stroke-opacity:1"
   d="M 670,200 V 164"
   id="path9"
   sodipodi:nodetypes="cc" /><path
   style="fill:none;stroke:#ffffff;stroke-width:3;stroke-dasharray:none;stroke-opacity:1"
   d="M 750,200 V 164"
   id="path10"
   sodipodi:nodetypes="cc" /><path
   style="fill:none;stroke:#ffffff;stroke-width:3;stroke-dasharray:none;stroke-opacity:1"
   d="M 830,200 V 164"
   id="path11"
   sodipodi:nodetypes="cc" /><path
   style="fill:none;stroke:#ffffff;stroke-width:3;stroke-dasharray:none;stroke-opacity:1"
   d="M 508,245 V 552"
   id="L2"
   sodipodi:nodetypes="cc" /><g
   id="M2"><path
     style="fill:none;stroke:#ffffff;stroke-width:3;stroke-dasharray:none;stroke-opacity:1"
     d="m 533,550 -50,50"
     id="path20"
     sodipodi:nodetypes="cc" /><path
     style="fill:none;stroke:#ffffff;stroke-width:3;stroke-dasharray:none;stroke-opacity:1"
     d="m 483,550 50,50"
     id="path21"
     sodipodi:nodetypes="cc" /><path
     id="path13"
     style="fill:#000000;fill-opacity:1;stroke:#ffffff;stroke-width:2.99986;stroke-dasharray:none"
     d="m 531.50009,575.00002 a 23.500074,23.500067 0 0 1 -23.50008,23.50006 23.500074,23.500067 0 0 1 -23.50008,-23.50006 23.500074,23.500067 0 0 1 23.50008,-23.50009 23.500074,23.500067 0 0 1 23.50008,23.50009 z" /></g><path
   style="fill:none;stroke:#ffffff;stroke-width:3;stroke-dasharray:none;stroke-opacity:1"
   d="M 590,245 V 479"
   id="L10"
   sodipodi:nodetypes="cc" /><g
   id="M10"
   transform="translate(81.99966,-73.00034)"><path
     style="fill:none;stroke:#ffffff;stroke-width:3;stroke-dasharray:none;stroke-opacity:1"
     d="m 533,550 -50,50"
     id="path22"
     sodipodi:nodetypes="cc" /><path
     style="fill:none;stroke:#ffffff;stroke-width:3;stroke-dasharray:none;stroke-opacity:1"
     d="m 483,550 50,50"
     id="path23"
     sodipodi:nodetypes="cc" /><path
     id="path24"
     style="fill:#000000;fill-opacity:1;stroke:#ffffff;stroke-width:2.99986;stroke-dasharray:none"
     d="m 531.50009,575.00002 a 23.500074,23.500067 0 0 1 -23.50008,23.50006 23.500074,23.500067 0 0 1 -23.50008,-23.50006 23.500074,23.500067 0 0 1 23.50008,-23.50009 23.500074,23.500067 0 0 1 23.50008,23.50009 z" /></g><path
   style="fill:none;stroke:#ffffff;stroke-width:3;stroke-dasharray:none;stroke-opacity:1"
   d="M 670,245 V 415"
   id="L4"
   sodipodi:nodetypes="cc" /><g
   id="M4"
   transform="translate(161.99966,-136.00034)"><path
     style="fill:none;stroke:#ffffff;stroke-width:3;stroke-dasharray:none;stroke-opacity:1"
     d="m 533,550 -50,50"
     id="path27"
     sodipodi:nodetypes="cc" /><path
     style="fill:none;stroke:#ffffff;stroke-width:3;stroke-dasharray:none;stroke-opacity:1"
     d="m 483,550 50,50"
     id="path28"
     sodipodi:nodetypes="cc" /><path
     id="path29"
     style="fill:#000000;fill-opacity:1;stroke:#ffffff;stroke-width:2.99986;stroke-dasharray:none"
     d="m 531.50009,575.00002 a 23.500074,23.500067 0 0 1 -23.50008,23.50006 23.500074,23.500067 0 0 1 -23.50008,-23.50006 23.500074,23.500067 0 0 1 23.50008,-23.50009 23.500074,23.500067 0 0 1 23.50008,23.50009 z" /></g><path
   style="fill:none;stroke:#ffffff;stroke-width:3;stroke-dasharray:none;stroke-opacity:1"
   d="M 750,245 V 348"
   id="L6"
   sodipodi:nodetypes="cc" /><g
   id="M6"
   transform="translate(241.99966,-203.00034)"><path
     style="fill:none;stroke:#ffffff;stroke-width:3;stroke-dasharray:none;stroke-opacity:1"
     d="m 533,550 -50,50"
     id="path31"
     sodipodi:nodetypes="cc" /><path
     style="fill:none;stroke:#ffffff;stroke-width:3;stroke-dasharray:none;stroke-opacity:1"
     d="m 483,550 50,50"
     id="path32"
     sodipodi:nodetypes="cc" /><path
     id="path33"
     style="fill:#000000;fill-opacity:1;stroke:#ffffff;stroke-width:2.99986;stroke-dasharray:none"
     d="m 531.50009,575.00002 a 23.500074,23.500067 0 0 1 -23.50008,23.50006 23.500074,23.500067 0 0 1 -23.50008,-23.50006 23.500074,23.500067 0 0 1 23.50008,-23.50009 23.500074,23.500067 0 0 1 23.50008,23.50009 z" /></g><path
   style="fill:none;stroke:#ffffff;stroke-width:3;stroke-dasharray:none;stroke-opacity:1"
   d="M 830.29246,243.13948 830,280"
   id="L8"
   sodipodi:nodetypes="cc" /><g
   id="M8"
   transform="translate(321.99966,-272.00034)"><path
     style="fill:none;stroke:#ffffff;stroke-width:3;stroke-dasharray:none;stroke-opacity:1"
     d="m 533,550 -50,50"
     id="path35"
     sodipodi:nodetypes="cc" /><path
     style="fill:none;stroke:#ffffff;stroke-width:3;stroke-dasharray:none;stroke-opacity:1"
     d="m 483,550 50,50"
     id="path36"
     sodipodi:nodetypes="cc" /><path
     id="path37"
     style="fill:#000000;fill-opacity:1;stroke:#ffffff;stroke-width:2.99986;stroke-dasharray:none"
     d="m 531.50009,575.00002 a 23.500074,23.500067 0 0 1 -23.50008,23.50006 23.500074,23.500067 0 0 1 -23.50008,-23.50006 23.500074,23.500067 0 0 1 23.50008,-23.50009 23.500074,23.500067 0 0 1 23.50008,23.50009 z" /></g><path
   style="fill:none;stroke:#ffffff;stroke-width:2.99996;stroke-dasharray:none;stroke-opacity:1"
   d="M 428.75266,246.33618 V 553.3349"
   id="path38"
   sodipodi:nodetypes="cc" /><g
   id="g41"
   transform="matrix(-0.99998072,0,0,0.99999584,936.74287,1.3371958)"><path
     style="fill:none;stroke:#ffffff;stroke-width:3;stroke-dasharray:none;stroke-opacity:1"
     d="m 533,550 -50,50"
     id="path39"
     sodipodi:nodetypes="cc" /><path
     style="fill:none;stroke:#ffffff;stroke-width:3;stroke-dasharray:none;stroke-opacity:1"
     d="m 483,550 50,50"
     id="path40"
     sodipodi:nodetypes="cc" /><path
     id="path41"
     style="fill:#000000;fill-opacity:1;stroke:#ffffff;stroke-width:2.99986;stroke-dasharray:none"
     d="m 531.50009,575.00002 a 23.500074,23.500067 0 0 1 -23.50008,23.50006 23.500074,23.500067 0 0 1 -23.50008,-23.50006 23.500074,23.500067 0 0 1 23.50008,-23.50009 23.500074,23.500067 0 0 1 23.50008,23.50009 z" /></g><path
   style="fill:none;stroke:#ffffff;stroke-width:2.99996;stroke-dasharray:none;stroke-opacity:1"
   d="M 346.75425,246.33618 V 480.3352"
   id="path42"
   sodipodi:nodetypes="cc" /><g
   id="g45"
   transform="matrix(-0.99998072,0,0,0.99999584,854.74479,-71.662841)"><path
     style="fill:none;stroke:#ffffff;stroke-width:3;stroke-dasharray:none;stroke-opacity:1"
     d="m 533,550 -50,50"
     id="path43"
     sodipodi:nodetypes="cc" /><path
     style="fill:none;stroke:#ffffff;stroke-width:3;stroke-dasharray:none;stroke-opacity:1"
     d="m 483,550 50,50"
     id="path44"
     sodipodi:nodetypes="cc" /><path
     id="path45"
     style="fill:#000000;fill-opacity:1;stroke:#ffffff;stroke-width:2.99986;stroke-dasharray:none"
     d="m 531.50009,575.00002 a 23.500074,23.500067 0 0 1 -23.50008,23.50006 23.500074,23.500067 0 0 1 -23.50008,-23.50006 23.500074,23.500067 0 0 1 23.50008,-23.50009 23.500074,23.500067 0 0 1 23.50008,23.50009 z" /></g><path
   style="fill:none;stroke:#ffffff;stroke-width:2.99996;stroke-dasharray:none;stroke-opacity:1"
   d="M 266.75579,246.33618 V 416.33547"
   id="path46"
   sodipodi:nodetypes="cc" /><g
   id="g49"
   transform="matrix(-0.99998072,0,0,0.99999584,774.74633,-134.66258)"><path
     style="fill:none;stroke:#ffffff;stroke-width:3;stroke-dasharray:none;stroke-opacity:1"
     d="m 533,550 -50,50"
     id="path47"
     sodipodi:nodetypes="cc" /><path
     style="fill:none;stroke:#ffffff;stroke-width:3;stroke-dasharray:none;stroke-opacity:1"
     d="m 483,550 50,50"
     id="path48"
     sodipodi:nodetypes="cc" /><path
     id="path49"
     style="fill:#000000;fill-opacity:1;stroke:#ffffff;stroke-width:2.99986;stroke-dasharray:none"
     d="m 531.50009,575.00002 a 23.500074,23.500067 0 0 1 -23.50008,23.50006 23.500074,23.500067 0 0 1 -23.50008,-23.50006 23.500074,23.500067 0 0 1 23.50008,-23.50009 23.500074,23.500067 0 0 1 23.50008,23.50009 z" /></g><g
   id="g53"
   transform="matrix(-0.99998072,0,0,0.99999584,695.65391,-268.44234)"><path
     style="fill:none;stroke:#ffffff;stroke-width:3;stroke-dasharray:none;stroke-opacity:1"
     d="m 533,550 -50,50"
     id="path51"
     sodipodi:nodetypes="cc" /><path
     style="fill:none;stroke:#ffffff;stroke-width:3;stroke-dasharray:none;stroke-opacity:1"
     d="m 483,550 50,50"
     id="path52"
     sodipodi:nodetypes="cc" /><path
     id="path53"
     style="fill:#000000;fill-opacity:1;stroke:#ffffff;stroke-width:2.99986;stroke-dasharray:none"
     d="m 531.50009,575.00002 a 23.500074,23.500067 0 0 1 -23.50008,23.50006 23.500074,23.500067 0 0 1 -23.50008,-23.50006 23.500074,23.500067 0 0 1 23.50008,-23.50009 23.500074,23.500067 0 0 1 23.50008,23.50009 z" /></g><path
   style="fill:none;stroke:#ffffff;stroke-width:2.99996;stroke-dasharray:none;stroke-opacity:1"
   d="m 187.81601,245.83379 v 36.86037"
   id="path16"
   sodipodi:nodetypes="cc" /><path
   id="path14"
   style="fill:#ffffff;fill-opacity:1;stroke:none;stroke-width:2.81385"
   d="m 538.6048,128.71681 a 7.9999999,7.999996 0 0 1 -8,8 7.9999999,7.999996 0 0 1 -8,-8 7.9999999,7.999996 0 0 1 8,-8 7.9999999,7.999996 0 0 1 8,8 z" />
  <text
   xml:space="preserve"
   style="font-style:normal;font-variant:normal;font-weight:normal;font-stretch:normal;font-size:38px;line-height:0%;font-family:'Liberation Sans';-inkscape-font-specification:'Liberation Sans';text-align:center;letter-spacing:0px;word-spacing:0px;writing-mode:lr-tb;text-anchor:middle;display:inline;fill:#ffffff;fill-opacity:1;stroke:none;stroke-width:1"
   x="512"
   y="208"
   id="Stations"><tspan
     x="107"
     y="235"
     id="tspan17">7</tspan><tspan
     x="187"
     y="235"
     id="S5">5</tspan><tspan
     x="267"
     y="235"
     id="S3">3</tspan><tspan
     x="347"
     y="235"
     id="S9">9</tspan><tspan
     x="427"
     y="235"
     id="S1">1</tspan><tspan
     x="507"
     y="235"
     id="S2">2</tspan><tspan
     x="597"
     y="235"
     id="S10">10</tspan><tspan
     x="667"
     y="235"
     id="S4">4</tspan><tspan
     x="747"
     y="235"
     id="S6">6</tspan><tspan
     x="827"
     y="235"
     id="S8">8</tspan></text><g
   id="g17"><path
     style="fill:none;stroke:#ffffff;stroke-width:2.99996;stroke-dasharray:none;stroke-opacity:1"
     d="m 110,244.47566 v 36.86037"
     id="S7"
     sodipodi:nodetypes="cc" /><path
     style="fill:none;stroke:#ffffff;stroke-width:2.99996;stroke-dasharray:none;stroke-opacity:1"
     d="M 89.073063,275.27795 H 129.07306"
     id="E7"
     sodipodi:nodetypes="cc" /><g
     id="M7"
     transform="matrix(-0.99998072,0,0,0.99999584,618.05036,-270.66201)"><path
       style="fill:none;stroke:#ffffff;stroke-width:3;stroke-dasharray:none;stroke-opacity:1"
       d="m 533,550 -50,50"
       id="path55"
       sodipodi:nodetypes="cc" /><path
       style="fill:none;stroke:#ffffff;stroke-width:3;stroke-dasharray:none;stroke-opacity:1"
       d="m 483,550 50,50"
       id="path56"
       sodipodi:nodetypes="cc" /><path
       id="path57"
       style="fill:#000000;fill-opacity:1;stroke:#ffffff;stroke-width:2.99986;stroke-dasharray:none"
       d="m 531.50009,575.00002 a 23.500074,23.500067 0 0 1 -23.50008,23.50006 23.500074,23.500067 0 0 1 -23.50008,-23.50006 23.500074,23.500067 0 0 1 23.50008,-23.50009 23.500074,23.500067 0 0 1 23.50008,23.50009 z" /></g><g
     id="B7"
     transform="matrix(1,0,0,0.96584289,-232.92456,-307.75864)"><path
       style="fill:#ffffff;fill-opacity:1;stroke:none;stroke-width:0.117851;stroke-dasharray:none;stroke-opacity:1"
       d="m 323.57477,602.70047 -5.55555,6.25 25,18.75 25,-18.75 -5.55555,-6.25 z"
       id="path12"
       sodipodi:nodetypes="cccccc" /><path
       id="path15"
       style="fill:#000000;fill-opacity:1;stroke:#ffffff;stroke-width:3;stroke-dasharray:none;stroke-opacity:1"
       d="m 363.01643,637.0755 a 19.997215,26.24721 0 0 1 -19.99721,26.2472 19.997215,26.24721 0 0 1 -19.99721,-26.2472 19.997215,26.24721 0 0 1 19.99721,-26.24724 19.997215,26.24721 0 0 1 19.99721,26.24724 z" /></g></g></svg>
